<?xml version="1.0" encoding="UTF-8" standalone="no"?>
<!-- Created with Inkscape (http://www.inkscape.org/) -->

<svg
   width="210mm"
   height="297mm"
   viewBox="0 0 210 297"
   version="1.1"
   id="svg1498"
   inkscape:version="1.3 (0e150ed6c4, 2023-07-21)"
   sodipodi:docname="ender_3_enclosure.svg"
   xmlns:inkscape="http://www.inkscape.org/namespaces/inkscape"
   xmlns:sodipodi="http://sodipodi.sourceforge.net/DTD/sodipodi-0.dtd"
   xmlns:xlink="http://www.w3.org/1999/xlink"
   xmlns="http://www.w3.org/2000/svg"
   xmlns:svg="http://www.w3.org/2000/svg">
  <sodipodi:namedview
     id="namedview1500"
     pagecolor="#ffffff"
     bordercolor="#666666"
     borderopacity="1.0"
     inkscape:pageshadow="2"
     inkscape:pageopacity="0.0"
     inkscape:pagecheckerboard="0"
     inkscape:document-units="mm"
     showgrid="true"
     showguides="false"
     inkscape:zoom="0.45254834"
     inkscape:cx="2192.031"
     inkscape:cy="-355.7631"
     inkscape:window-width="3188"
     inkscape:window-height="1726"
     inkscape:window-x="852"
     inkscape:window-y="252"
     inkscape:window-maximized="0"
     inkscape:current-layer="layer1"
     inkscape:showpageshadow="2"
     inkscape:deskcolor="#d1d1d1">
    <inkscape:page
       x="0"
       y="0"
       width="210"
       height="297"
       id="page3"
       margin="0"
       bleed="0" />
    <inkscape:page
       x="151.59569"
       y="150.25558"
       width="297"
       height="210.00002"
       id="page4"
       margin="0"
       bleed="0" />
    <inkscape:page
       x="394.39709"
       y="13.446999"
       width="210"
       height="297"
       id="page5"
       margin="0"
       bleed="0" />
    <inkscape:page
       x="401.58374"
       y="-232.10689"
       width="210"
       height="297"
       id="page6"
       margin="0"
       bleed="0" />
    <inkscape:page
       x="1.8525375"
       y="-253.73903"
       width="210"
       height="297"
       id="page7"
       margin="0"
       bleed="0" />
    <inkscape:page
       x="50.090469"
       y="-424.42667"
       width="297"
       height="210.00002"
       id="page8"
       margin="0"
       bleed="0" />
    <inkscape:page
       x="296.07028"
       y="-408.71704"
       width="297"
       height="210.00002"
       id="page9"
       margin="0"
       bleed="0" />
    <inkscape:grid
       id="grid9"
       units="in"
       originx="0"
       originy="55.242717"
       spacingx="12.7"
       spacingy="12.7"
       empcolor="#3f3fff"
       empopacity="0.25098039"
       color="#3f3fff"
       opacity="0.1254902"
       empspacing="5"
       dotted="false"
       gridanglex="30"
       gridanglez="30"
       visible="true" />
  </sodipodi:namedview>
  <defs
     id="defs1495" />
  <g
     inkscape:label="Layer 1"
     inkscape:groupmode="layer"
     id="layer1"
     transform="translate(-21.073035,121.40406)">
    <path
       style="fill:none;stroke:#0000ff;stroke-width:1;stroke-linecap:round;stroke-linejoin:round;stroke-miterlimit:4;stroke-dasharray:none;stroke-opacity:1"
       d="m 166.48906,-111.9849 31.75,215.90001 h 234.95 V -61.184896 h 111.125 V -162.78489 l -9.525,-127 -101.6,-127 h -80.1624 l -135.7376,-44.45 h -19.05 v 44.45 l -95.25,196.85 v 63.49999 z"
       id="path1592"
       sodipodi:nodetypes="ccccccccccccccc" />
    <rect
       style="fill:none;stroke:#0000ff;stroke-width:1;stroke-linecap:round;stroke-linejoin:round;stroke-miterlimit:4;stroke-dasharray:none;stroke-opacity:1"
       id="rect1696"
       width="329.9285"
       height="291.82849"
       x="153.92482"
       y="-353.14914" />
    <path
       style="fill:none;stroke:#ff0000;stroke-width:1;stroke-linecap:round;stroke-linejoin:round;stroke-miterlimit:4;stroke-dasharray:none;stroke-opacity:1"
       sodipodi:type="inkscape:offset"
       inkscape:radius="10"
       inkscape:original="M 227.75977 -468.02148 C 222.05061 -467.87322 216.08369 -467.04253 209.73828 -465.31055 C 158.97502 -451.45465 168.02296 -409.16546 153.92578 -353.14844 C 139.8286 -297.13143 100.19528 -269.82684 100.10547 -189.66211 C 100.01567 -109.49738 119.18035 -109.30024 153.92578 -61.320312 C 188.67121 -13.340379 163.96797 81.436573 198.23828 103.91602 C 232.50859 126.39546 276.1953 104.17187 318.38086 104.17188 C 360.56642 104.17188 403.55827 128.6839 433.18945 103.91602 C 462.82063 79.148133 427.1338 44.677121 466.02148 -9.1152344 C 504.90917 -62.907582 545.54108 -39.939791 550.06641 -73.693359 C 554.59174 -107.44693 559.87798 -118.17665 544.31445 -162.78516 C 528.75092 -207.39369 558.02245 -260.9518 544.41602 -292.5293 C 530.80959 -324.1068 498.19326 -329.80592 471.72266 -381.27539 C 445.25207 -432.74486 412.34599 -454.46329 349.74805 -444.9375 C 294.97485 -436.60243 267.72385 -469.05931 227.75977 -468.02148 z "
       xlink:href="#path1982"
       id="path3219"
       inkscape:href="#path1982"
       d="m 227.5,-478.01758 c -6.49742,0.16873 -13.29641,1.12312 -20.39453,3.06055 -28.02035,7.64819 -42.18181,25.84254 -48.59375,47.01953 -6.41194,21.17699 -7.50354,45.40776 -14.2832,72.34766 -6.60115,26.23051 -19.44336,46.22778 -31.44532,70.73047 -12.00196,24.50268 -22.630981,53.4565 -22.677731,95.18554 -0.04579,40.87922 4.998779,63.31075 15.150391,81.18945 10.15161,17.878713 23.70607,29.741492 40.57031,53.029302 14.87777,20.544703 18.00896,54.52991861 20.46289,87.068359 1.22697,16.269221 2.39656,32.084418 5.72461,46.064453 3.32805,13.980036 9.01727,26.909986 20.74024,34.599606 20.02835,13.1375 42.5888,12.96717 63.91601,10.10743 21.32721,-2.85975 42.3742,-8.2129 61.71094,-8.21289 19.15592,0 39.93708,5.86774 60.59375,9.04296 20.65667,3.17523 42.7419,3.3243 60.62891,-11.62695 9.04139,-7.55745 13.82244,-17.096849 15.57421,-26.359374 1.75178,-9.262526 1.12922,-18.13959 0.95508,-27.136719 -0.34826,-17.994259 -0.007,-36.450412 17.99219,-61.3476564 18.07914,-25.0084166 34.77725,-31.1069886 49.9707,-36.1777346 7.59673,-2.535373 15.03215,-4.474454 22.01953,-9.222656 6.98739,-4.748202 12.45022,-13.169166 13.86329,-23.708984 4.42612,-33.013616 9.73716,-47.970486 -6.22266,-93.714846 -6.72937,-19.28785 -3.89894,-42.10973 -0.25,-64.88086 3.64894,-22.77112 8.74126,-45.45643 0.0937,-65.52539 -7.86579,-18.25476 -21.08383,-28.79047 -34.0293,-40.40039 -12.94546,-11.60992 -26.41514,-24.58022 -38.95508,-48.96289 -13.74443,-26.72471 -29.8047,-46.92468 -51.5039,-58.88672 -21.6992,-11.96204 -48.19314,-15.06003 -80.86719,-10.08789 -25.23417,3.83999 -43.37275,-1.5237 -61.55664,-8.29101 -18.18389,-6.76732 -36.44208,-15.49303 -59.1875,-14.90235 z" />
    <path
       style="fill:none;stroke:#0000ff;stroke-width:1;stroke-linecap:round;stroke-linejoin:round;stroke-miterlimit:4;stroke-dasharray:none;stroke-opacity:1"
       d="m 153.92482,-61.320669 c 34.74543,47.979934 10.04393,142.756336 44.31424,165.235779 34.27031,22.47944 77.95528,0.25754 120.14084,0.25754 42.18556,0 85.17798,24.51034 114.80916,-0.25754 29.63118,-24.767883 -6.05616,-59.237203 32.83152,-113.029558 38.88769,-53.792348 79.52095,-30.825597 84.04628,-64.579165 4.52533,-33.753567 9.81073,-44.482767 -5.7528,-89.091277 -15.56353,-44.60853 13.70866,-98.16773 0.10223,-129.74523 -13.60643,-31.5775 -46.22264,-37.27646 -72.69324,-88.74593 -26.47059,-51.46947 -59.37729,-73.18717 -121.97523,-63.66138 -62.59794,9.52579 -89.24726,-34.22818 -140.01051,-20.37228 -50.76326,13.8559 -41.71531,56.14354 -55.81249,112.16056 -14.09718,56.01701 -53.72972,83.32219 -53.81953,163.48692 -0.0898,80.16473 19.0741,80.36163 53.81953,128.341561 z"
       id="path1982"
       sodipodi:nodetypes="zzzzzzzzzzzzzz" />
    <path
       style="fill:none;stroke:#ff0000;stroke-width:1;stroke-linecap:round;stroke-linejoin:round;stroke-miterlimit:4;stroke-dasharray:none;stroke-opacity:1"
       sodipodi:type="inkscape:offset"
       inkscape:radius="20"
       inkscape:original="M 227.75977 -468.02148 C 222.05061 -467.87322 216.08369 -467.04253 209.73828 -465.31055 C 158.97502 -451.45465 168.02296 -409.16546 153.92578 -353.14844 C 139.8286 -297.13143 100.19528 -269.82684 100.10547 -189.66211 C 100.01567 -109.49738 119.18035 -109.30024 153.92578 -61.320312 C 188.67121 -13.340379 163.96797 81.436573 198.23828 103.91602 C 232.50859 126.39546 276.1953 104.17187 318.38086 104.17188 C 360.56642 104.17188 403.55827 128.6839 433.18945 103.91602 C 462.82063 79.148133 427.1338 44.677121 466.02148 -9.1152344 C 504.90917 -62.907582 545.54108 -39.939791 550.06641 -73.693359 C 554.59174 -107.44693 559.87798 -118.17665 544.31445 -162.78516 C 528.75092 -207.39369 558.02245 -260.9518 544.41602 -292.5293 C 530.80959 -324.1068 498.19326 -329.80592 471.72266 -381.27539 C 445.25207 -432.74486 412.34599 -454.46329 349.74805 -444.9375 C 294.97485 -436.60243 267.72385 -469.05931 227.75977 -468.02148 z "
       xlink:href="#path1982"
       id="path3240"
       inkscape:href="#path1982"
       d="m 227.24023,-488.01562 c -7.28569,0.1892 -14.91674,1.26727 -22.76757,3.41015 -30.65909,8.36844 -48.55489,30.72194 -55.53321,53.76953 -6.97832,23.0476 -7.89745,46.93533 -14.4082,72.80664 -6.1537,24.45255 -18.40629,43.61496 -30.72852,68.77149 -12.322221,25.15652 -23.648667,56.19845 -23.697261,99.57422 -0.04669,41.67611 5.274971,66.44665 16.455078,86.13671 11.180103,19.690069 24.810233,31.371357 41.166013,53.957036 12.38285,17.099464 16.13314,49.3798251 18.58985,81.955078 1.22835,16.287627 2.36082,32.46502 5.9707,47.628907 3.60988,15.163886 10.10406,30.885139 24.98242,40.644529 22.92156,15.03529 48.55469,14.63174 70.73047,11.6582 22.17578,-2.97353 42.80014,-8.125 60.38086,-8.12499 17.21908,0 37.48591,5.6093 59.07422,8.92773 21.58831,3.31843 47.6021,3.68069 68.56054,-13.83789 10.675,-8.92293 16.91361,-21.203918 18.98829,-32.173829 2.07468,-10.969912 1.29679,-20.414077 1.12695,-29.189454 -0.33968,-17.550752 -0.4541,-32.398538 16.09961,-55.2968745 16.71446,-23.1206865 30.22894,-27.6086235 45.03125,-32.5488285 7.40115,-2.470102 15.55111,-4.374962 24.47265,-10.4375 8.92155,-6.062537 16.45949,-18.009138 18.1543,-30.65039 4.32693,-32.273694 9.66472,-51.457644 -6.6914,-98.337894 -5.67698,-16.27146 -3.44461,-37.37637 0.18164,-60.00586 3.62624,-22.62949 9.89612,-46.71526 -0.59571,-71.06445 -8.92838,-20.72078 -23.80987,-32.47447 -36.53711,-43.88867 -12.72723,-11.41421 -24.8937,-23.05922 -36.73828,-46.08984 -14.25359,-27.71472 -31.53002,-49.82074 -55.56836,-63.07227 -24.03833,-13.25153 -53.15201,-16.39625 -87.20117,-11.21484 -23.08177,3.51245 -38.84962,-1.18533 -56.5625,-7.77735 -17.71288,-6.59202 -37.42673,-16.19174 -62.93555,-15.52929 z" />
    <path
       style="fill:none;stroke:#ff0000;stroke-width:1;stroke-linecap:round;stroke-linejoin:round;stroke-miterlimit:4;stroke-dasharray:none;stroke-opacity:1"
       sodipodi:type="inkscape:offset"
       inkscape:radius="30"
       inkscape:original="M 227.75977 -468.02148 C 222.05061 -467.87322 216.08369 -467.04253 209.73828 -465.31055 C 158.97502 -451.45465 168.02296 -409.16546 153.92578 -353.14844 C 139.8286 -297.13143 100.19528 -269.82684 100.10547 -189.66211 C 100.01567 -109.49738 119.18035 -109.30024 153.92578 -61.320312 C 188.67121 -13.340379 163.96797 81.436573 198.23828 103.91602 C 232.50859 126.39546 276.1953 104.17187 318.38086 104.17188 C 360.56642 104.17188 403.55827 128.6839 433.18945 103.91602 C 462.82063 79.148133 427.1338 44.677121 466.02148 -9.1152344 C 504.90917 -62.907582 545.54108 -39.939791 550.06641 -73.693359 C 554.59174 -107.44693 559.87798 -118.17665 544.31445 -162.78516 C 528.75092 -207.39369 558.02245 -260.9518 544.41602 -292.5293 C 530.80959 -324.1068 498.19326 -329.80592 471.72266 -381.27539 C 445.25207 -432.74486 412.34599 -454.46329 349.74805 -444.9375 C 294.97485 -436.60243 267.72385 -469.05931 227.75977 -468.02148 z "
       xlink:href="#path1982"
       id="path3242"
       inkscape:href="#path1982"
       d="m 226.98047,-498.01172 c -8.07396,0.20967 -16.53903,1.41143 -25.14258,3.75977 -33.29782,9.08868 -54.92405,35.59938 -62.46875,60.51758 -7.5447,24.91819 -8.29528,48.46094 -14.53711,73.26367 -5.70626,22.67457 -17.36923,41.00213 -30.011718,66.8125 -12.642492,25.81037 -24.664404,58.94041 -24.714843,103.96289 -0.04758,42.47301 5.551162,69.58451 17.759765,91.085935 12.208606,21.50142 25.914396,33.001216 41.761716,54.884766 9.88793,13.654225 14.25927,44.22973058 16.71875,76.841796 1.22975,16.306033 2.32119,32.843669 6.21289,49.191407 3.89171,16.347737 11.19085,34.862246 29.22461,46.691406 25.81478,16.93307 54.52057,16.29435 77.54492,13.20703 23.02436,-3.08731 43.22803,-8.03516 59.05274,-8.03516 15.28224,0 35.03474,5.35087 57.55469,8.8125 22.51994,3.46164 52.46426,4.03513 76.49414,-16.05078 12.30859,-10.28841 20.00085,-25.31098 22.39843,-37.988278 2.39759,-12.677297 1.46634,-22.688564 1.30079,-31.242187 -0.3311,-17.107246 -0.90358,-28.342757 14.20507,-49.2421875 15.34978,-21.2329555 25.68258,-24.1122115 40.09375,-28.9218745 7.20559,-2.404832 16.07204,-4.277425 26.92774,-11.654297 10.8557,-7.376873 20.46876,-22.84911 22.44531,-37.591797 4.22772,-31.533769 9.59227,-54.944799 -7.16016,-102.960939 -4.62458,-13.25508 -2.99026,-32.64105 0.61329,-55.1289 3.60354,-22.48786 11.04902,-47.9741 -1.28711,-76.60352 -9.99097,-23.18681 -26.53397,-36.15847 -39.04297,-47.37695 -12.50901,-11.21849 -23.37421,-21.54018 -34.52344,-43.21875 -14.76275,-28.70472 -33.2573,-52.71485 -59.63477,-67.25586 -26.37746,-14.54102 -58.10698,-17.73441 -93.53125,-12.34375 -20.92937,3.18491 -34.32843,-0.84694 -51.57031,-7.26367 -17.24187,-6.41674 -38.41137,-16.88655 -66.68359,-16.15235 z" />
    <path
       style="fill:none;stroke:#ff0000;stroke-width:1;stroke-linecap:round;stroke-linejoin:round;stroke-miterlimit:4;stroke-dasharray:none;stroke-opacity:1"
       sodipodi:type="inkscape:offset"
       inkscape:radius="40"
       inkscape:original="M 227.75977 -468.02148 C 222.05061 -467.87322 216.08369 -467.04253 209.73828 -465.31055 C 158.97502 -451.45465 168.02296 -409.16546 153.92578 -353.14844 C 139.8286 -297.13143 100.19528 -269.82684 100.10547 -189.66211 C 100.01567 -109.49738 119.18035 -109.30024 153.92578 -61.320312 C 188.67121 -13.340379 163.96797 81.436573 198.23828 103.91602 C 232.50859 126.39546 276.1953 104.17187 318.38086 104.17188 C 360.56642 104.17188 403.55827 128.6839 433.18945 103.91602 C 462.82063 79.148133 427.1338 44.677121 466.02148 -9.1152344 C 504.90917 -62.907582 545.54108 -39.939791 550.06641 -73.693359 C 554.59174 -107.44693 559.87798 -118.17665 544.31445 -162.78516 C 528.75092 -207.39369 558.02245 -260.9518 544.41602 -292.5293 C 530.80959 -324.1068 498.19326 -329.80592 471.72266 -381.27539 C 445.25207 -432.74486 412.34599 -454.46329 349.74805 -444.9375 C 294.97485 -436.60243 267.72385 -469.05931 227.75977 -468.02148 z "
       xlink:href="#path1982"
       id="path3244"
       inkscape:href="#path1982"
       d="m 226.7207,-508.00781 c -8.86223,0.23014 -18.15936,1.55558 -27.51562,4.10937 -35.93656,9.80894 -61.29518,40.47878 -69.40625,67.26758 -8.11108,26.7888 -8.69116,49.98656 -14.66406,73.7207 -5.25882,20.89661 -16.332168,38.38931 -29.294926,64.85352 -12.962759,26.46421 -25.682091,61.68041 -25.734375,108.34961 -0.04847,43.2699 5.8254,72.72238 19.0625,96.035155 13.2371,23.312777 27.022461,34.631081 42.361331,55.8125 7.393,10.208986 12.38149,39.0796371 14.84375,71.728516 1.23113,16.324439 2.2835,33.224271 6.45703,50.755859 4.17352,17.53159 12.27958,38.83935 33.46875,52.73828 28.70799,18.83086 60.48645,17.95696 84.35937,14.75586 23.87293,-3.2011 43.65397,-7.94727 57.72266,-7.94727 13.3454,0 32.58357,5.09048 56.03516,8.69532 23.45158,3.60484 57.32642,4.39346 84.42773,-18.25977 13.9422,-11.6539 23.09005,-29.42 25.81055,-43.804686 2.72049,-14.384684 1.63391,-24.961098 1.47265,-33.292968 -0.32251,-16.663741 -1.35306,-24.290883 12.31055,-43.191407 13.9851,-19.3452248 21.13622,-20.6157985 35.15625,-25.294922 7.01002,-2.339561 16.59295,-4.175979 29.38281,-12.867187 12.78986,-8.691208 24.47609,-27.691035 26.73438,-44.535156 4.12852,-30.793853 9.51982,-58.430004 -7.62891,-107.582034 -3.57219,-10.23869 -2.53593,-27.90768 1.04492,-50.2539 3.58085,-22.34622 12.20388,-49.23294 -1.97656,-82.14258 -11.05355,-25.65283 -29.26001,-39.84051 -41.55078,-50.86328 -12.29077,-11.02277 -21.85081,-20.02308 -32.30469,-40.34961 -15.2719,-29.69472 -34.98457,-55.60895 -63.70117,-71.43946 -28.7166,-15.8305 -63.06391,-19.07257 -99.86328,-13.47265 -18.77698,2.85737 -29.80726,-0.5066 -46.57813,-6.74805 -16.77087,-6.24144 -39.39602,-17.58331 -70.43164,-16.77734 z" />
    <path
       style="fill:none;stroke:#ff0000;stroke-width:1;stroke-linecap:round;stroke-linejoin:round;stroke-miterlimit:4;stroke-dasharray:none;stroke-opacity:1"
       sodipodi:type="inkscape:offset"
       inkscape:radius="50"
       inkscape:original="M 227.75977 -468.02148 C 222.05061 -467.87322 216.08369 -467.04253 209.73828 -465.31055 C 158.97502 -451.45465 168.02296 -409.16546 153.92578 -353.14844 C 139.8286 -297.13143 100.19528 -269.82684 100.10547 -189.66211 C 100.01567 -109.49738 119.18035 -109.30024 153.92578 -61.320312 C 188.67121 -13.340379 163.96797 81.436573 198.23828 103.91602 C 232.50859 126.39546 276.1953 104.17187 318.38086 104.17188 C 360.56642 104.17188 403.55827 128.6839 433.18945 103.91602 C 462.82063 79.148133 427.1338 44.677121 466.02148 -9.1152344 C 504.90917 -62.907582 545.54108 -39.939791 550.06641 -73.693359 C 554.59174 -107.44693 559.87798 -118.17665 544.31445 -162.78516 C 528.75092 -207.39369 558.02245 -260.9518 544.41602 -292.5293 C 530.80959 -324.1068 498.19326 -329.80592 471.72266 -381.27539 C 445.25207 -432.74486 412.34599 -454.46329 349.74805 -444.9375 C 294.97485 -436.60243 267.72385 -469.05931 227.75977 -468.02148 z "
       xlink:href="#path1982"
       id="path3246"
       inkscape:href="#path1982"
       d="m 226.46094,-518.00391 c -9.6505,0.25062 -19.7797,1.69779 -29.88867,4.45704 -38.57531,10.52918 -67.6663,45.35818 -76.34375,74.01757 -8.67746,28.6594 -9.08703,51.51218 -14.79102,74.17774 -4.81138,19.11864 -15.2951,35.77843 -28.578125,62.89648 -13.283025,27.11806 -26.699777,64.42041 -26.753906,112.73633 -0.04936,44.0668 6.101591,75.86024 20.367187,100.984375 14.265597,25.124133 28.126628,36.260945 42.957034,56.740234 4.89807,6.763747 10.50762,33.9295436 12.97265,66.615235 1.23252,16.342845 2.24387,33.604874 6.69922,52.320312 4.45535,18.715434 13.36833,42.814504 37.71289,58.783204 31.6012,20.72865 66.45038,19.61957 91.17188,16.30469 24.7215,-3.31489 44.08186,-7.85743 56.39453,-7.85743 11.40856,0 30.1324,4.83204 54.51562,8.58008 24.38322,3.74805 62.18664,4.7479 92.35938,-20.47265 15.5758,-13.01938 26.1812,-33.52512 29.22461,-49.617191 3.04341,-16.09207 1.8015,-27.235586 1.64453,-35.345703 -0.31393,-16.220234 -1.80254,-20.237055 10.41602,-37.138672 12.62041,-17.4574943 16.58985,-17.1193862 30.21875,-21.6679684 6.81444,-2.274291 17.11192,-4.0764886 31.83593,-14.0820316 14.72402,-10.005542 28.48732,-32.531007 31.02735,-51.476562 4.02932,-30.053932 9.44541,-61.919112 -8.09961,-112.207032 -2.5198,-7.2223 -2.07964,-23.17237 1.47851,-45.37695 3.55816,-22.20459 13.35678,-50.49177 -2.66797,-87.68164 -12.11613,-28.11886 -31.9841,-43.52451 -44.05664,-54.35157 -12.07254,-10.82705 -20.33132,-18.50207 -30.08984,-37.47656 -15.78106,-30.68472 -36.70989,-58.50501 -67.76563,-75.625 -31.05573,-17.11999 -68.02083,-20.41073 -106.19531,-14.60156 -16.62458,2.52983 -25.28607,-0.16822 -41.58594,-6.23438 -16.29986,-6.06615 -40.38067,-18.27812 -74.17968,-17.40039 z" />
  </g>
</svg>
