<?xml version="1.0" encoding="UTF-8" standalone="no"?>
<!-- Created with Inkscape (http://www.inkscape.org/) -->

<svg
   width="210mm"
   height="297mm"
   viewBox="0 0 210 297"
   version="1.1"
   id="svg1"
   inkscape:version="1.3 (0e150ed6c4, 2023-07-21)"
   sodipodi:docname="glasses_airspace_layout.svg"
   xml:space="preserve"
   xmlns:inkscape="http://www.inkscape.org/namespaces/inkscape"
   xmlns:sodipodi="http://sodipodi.sourceforge.net/DTD/sodipodi-0.dtd"
   xmlns:xlink="http://www.w3.org/1999/xlink"
   xmlns="http://www.w3.org/2000/svg"
   xmlns:svg="http://www.w3.org/2000/svg"><sodipodi:namedview
     id="namedview1"
     pagecolor="#ffffff"
     bordercolor="#666666"
     borderopacity="1.0"
     inkscape:showpageshadow="2"
     inkscape:pageopacity="0.0"
     inkscape:pagecheckerboard="0"
     inkscape:deskcolor="#d1d1d1"
     inkscape:document-units="mm"
     inkscape:zoom="3.3259474"
     inkscape:cx="21.647967"
     inkscape:cy="-1.0523317"
     inkscape:window-width="1388"
     inkscape:window-height="1051"
     inkscape:window-x="32"
     inkscape:window-y="100"
     inkscape:window-maximized="0"
     inkscape:current-layer="layer1" /><defs
     id="defs1"><inkscape:path-effect
       effect="bspline"
       id="path-effect4"
       is_visible="true"
       lpeversion="1.3"
       weight="33.333333"
       steps="2"
       helper_size="0"
       apply_no_weight="true"
       apply_with_weight="true"
       only_selected="false"
       uniform="true" /><inkscape:path-effect
       effect="bspline"
       id="path-effect3"
       is_visible="true"
       lpeversion="1.3"
       weight="33.333333"
       steps="2"
       helper_size="0"
       apply_no_weight="true"
       apply_with_weight="true"
       only_selected="false"
       uniform="false" /><inkscape:path-effect
       effect="bspline"
       id="path-effect2"
       is_visible="true"
       lpeversion="1.3"
       weight="33.333333"
       steps="2"
       helper_size="0"
       apply_no_weight="true"
       apply_with_weight="true"
       only_selected="false"
       uniform="true" /><inkscape:path-effect
       effect="bspline"
       id="path-effect20"
       is_visible="true"
       lpeversion="1.3"
       weight="33.333333"
       steps="2"
       helper_size="0"
       apply_no_weight="true"
       apply_with_weight="true"
       only_selected="false"
       uniform="true" /><inkscape:path-effect
       effect="bspline"
       id="path-effect12"
       is_visible="true"
       lpeversion="1.3"
       weight="33.333333"
       steps="2"
       helper_size="0"
       apply_no_weight="true"
       apply_with_weight="true"
       only_selected="false"
       uniform="true" /><inkscape:path-effect
       effect="bspline"
       id="path-effect17"
       is_visible="true"
       lpeversion="1.3"
       weight="33.333333"
       steps="2"
       helper_size="0"
       apply_no_weight="true"
       apply_with_weight="true"
       only_selected="false"
       uniform="true" /><inkscape:path-effect
       effect="bspline"
       id="path-effect18"
       is_visible="true"
       lpeversion="1.3"
       weight="33.333333"
       steps="2"
       helper_size="0"
       apply_no_weight="true"
       apply_with_weight="true"
       only_selected="false"
       uniform="true" /><inkscape:path-effect
       effect="bspline"
       id="path-effect17-6"
       is_visible="true"
       lpeversion="1.3"
       weight="33.333333"
       steps="2"
       helper_size="0"
       apply_no_weight="true"
       apply_with_weight="true"
       only_selected="false"
       uniform="true" /></defs><g
     inkscape:label="Layer 1"
     inkscape:groupmode="layer"
     id="layer1"><image
       width="177.46132"
       height="80.941338"
       preserveAspectRatio="none"
       xlink:href="private/glasses_bottom_scan_with_earpieces_parallel_to_tracing_surface.png"
       id="image1-1"
       x="-144.07951"
       y="372.26208"
       transform="rotate(3.0349936)" /><image
       width="174.41333"
       height="70.103996"
       preserveAspectRatio="none"
       xlink:href="private/glasses_top_scan_with_earpieces_parallel_to_tracing_surface.png"
       id="image1-9"
       x="-160.16168"
       y="276.48599"
       transform="rotate(0.90137701)" /><image
       width="157.14133"
       height="73.152"
       preserveAspectRatio="none"
       xlink:href="private/glasses_square_trace_scan_with_earpieces_perpendicular_to_tracing_surface.png"
       id="image1-5"
       x="-56.85281"
       y="198.56422"
       transform="rotate(4.4554712)" /><image
       width="250"
       height="250"
       preserveAspectRatio="none"
       xlink:href="private/Eli_face_scan_1_depthmap_3px_per_mm_color_range_-100to150y.png"
       id="image1-2"
       x="-125"
       y="-125" /><image
       width="250"
       height="250.5291"
       preserveAspectRatio="none"
       xlink:href="private/Eli_face_scan_render_hack.png"
       id="image1-11"
       x="-125"
       y="-125" /><image
       width="144.19792"
       height="60.060417"
       preserveAspectRatio="none"
       xlink:href="private/Eli_face_scan_glasses_hack.png"
       id="image1"
       x="-75.213364"
       y="-23.314117"
       style="opacity:0.50694444" /><path
       style="fill:none;fill-opacity:1;stroke:#ff0000;stroke-width:0.2;stroke-linecap:round;stroke-linejoin:round;stroke-dasharray:none;stroke-opacity:1"
       d="m 0,-29.987439 c 0,0 15.849816,0.105743 27.299323,0.809061 11.449507,0.703318 15.866466,1.673576 21.208482,3.519957 5.342015,1.846381 10.332992,4.961464 12.940722,8.652427 2.60773,3.690964 3.663972,8.4768852 4.304602,12.9488746 0.640631,4.47198936 0.865635,8.6299552 1.142717,17.4062834 0.277083,8.776328 0.60624,22.170918 -4.554649,29.537586 -5.16089,7.366669 -15.811805,8.705341 -22.671482,8.677634 C 32.810037,51.536677 29.739244,50.141525 27.019462,46.126332 24.29968,42.111139 21.926251,35.473836 20.708418,31.106968 19.490586,26.7401 19.433983,24.664956 17.653591,22.691922 15.873198,20.718889 14.704482,20.0957 12.643578,18.926502 10.582674,17.757304 8.9192492,16.73938 8.9192492,16.73938"
       id="window_to_seal"
       sodipodi:nodetypes="ccccccccccccc"
       inkscape:original-d="m 0,-29.987439 c 0,0 21.907981,0.14616 32.862,0.21924 5.88683,1.293139 12.950981,2.844896 17.66046,3.87941 3.32736,2.076749 8.318337,5.191832 12.47754,7.787769 1.056257,4.78599 2.112499,9.5719113 3.168754,14.35789 0.225005,4.158 0.450009,8.3159658 0.675015,12.47396 0.32916,13.394662 0.658317,26.789252 0.987477,40.183913 -10.650939,1.338675 -21.301854,2.677348 -31.952761,4.01602 -3.068448,-1.394086 -6.139241,-2.789238 -9.205356,-4.182264 -2.373449,-6.63736 -4.746879,-13.274663 -7.125776,-19.927259 -0.05677,-2.08114 -0.11337,-4.156284 -0.17004,-6.23387 -2.335995,-1.245611 -4.672831,-2.49167 -7.009237,-3.7375 -1.149606,-0.703495 -3.4488268,-2.11049 -3.4488268,-2.11049"
       inkscape:path-effect="#path-effect17" /><path
       style="fill:none;fill-opacity:1;stroke:#ff00e6;stroke-width:0.2;stroke-linecap:round;stroke-linejoin:round;stroke-dasharray:none;stroke-opacity:1"
       d="m 0,13.178 c 0,0 2.6297653,0 4.4030007,1.092415 1.7732354,1.092415 2.3163401,2.731712 4.0792032,4.13898 1.7628631,1.407267 5.6945191,1.533554 7.3378501,1.286754 1.643331,-0.246799 1.653535,-0.845623 1.035946,-1.65726 -0.617589,-0.811638 -1.862952,-1.836061 -3.167737,-2.00007 -1.304785,-0.164009 -2.668955,0.5324 -3.7002446,0.175386 -1.0312896,-0.357014 -1.7296677,-1.767447 -2.239582,-3.700211 -0.5099142,-1.932764 -0.8293805,-4.372719 -1.8466362,-6.0214954 -1.0172556,-1.6487765 -1.586262,-1.9238946 -2.9400926,-2.1956966 -1.3538307,-0.271802 -2.9617036,-0.271802 -2.9617036,-0.271802"
       id="nose_clip_face_contact_area"
       inkscape:path-effect="#path-effect18"
       inkscape:original-d="m 0,13.178 c 0,0 3.6349239,0 5.4523943,0 0.7238418,2.18483 1.5924435,4.806601 2.1715187,6.55447 2.621154,0.08419 6.55281,0.210479 9.829269,0.31572 0.0102,-0.59884 0.02041,-1.197664 0.03061,-1.7965 -1.245381,-1.024439 -2.490744,-2.048862 -3.736124,-3.0733 -1.36419,0.69642 -2.72836,1.392829 -4.0925531,2.08925 C 8.9567287,15.857191 8.2583508,14.446758 7.5599701,13.03632 7.2385222,10.58123 6.9190559,8.141275 6.595625,5.67104 5.4538319,5.118976 4.3155382,4.568604 3.1912421,4.025 c -1.0539051,0 -2.1191724,0 -3.1912381,0"
       sodipodi:nodetypes="ccccccccccc" /><path
       style="fill:none;stroke:#0000ff;stroke-width:0.3;stroke-linecap:round;stroke-linejoin:round;stroke-dasharray:none;stroke-opacity:1"
       d="M 0,-125 V 125"
       id="path10"
       sodipodi:nodetypes="cc" /><path
       style="fill:none;stroke:#0000ff;stroke-width:0.3;stroke-linecap:round;stroke-linejoin:round;stroke-dasharray:none;stroke-opacity:1"
       d="M -125,0 H 125"
       id="path13"
       sodipodi:nodetypes="cc" /><path
       style="fill:none;fill-opacity:1;stroke:#ff0000;stroke-width:0.2;stroke-linecap:round;stroke-linejoin:round;stroke-dasharray:2, 0.2, 0;stroke-dashoffset:0;stroke-opacity:1"
       d="m 0,-21.12312 c 0,0 15.849822,0.105743 27.299325,0.809061 11.449503,0.703317 15.866472,1.673577 20.804872,3.090051 4.9384,1.416473 8.718572,3.241859 10.464835,5.455424 1.746263,2.2135643 2.088614,5.1194947 2.593125,8.6327243 0.504512,3.51322963 1.171175,7.6336975 1.669089,12.2261036 0.497914,4.5924061 0.827072,9.6567041 -3.299428,12.9519551 -4.126501,3.29525 -12.708639,4.821425 -19.29276,5.40985 C 33.654936,28.040474 29.068843,27.691148 25.073541,26.32019 21.07824,24.949233 17.663352,22.549337 14.512295,20.719342 11.361237,18.889347 8.4533247,17.614679 7.0853254,13.209972 5.717326,8.8052663 5.783499,6.3036144 4.3816708,3.8321494 2.9798425,1.3606844 0,1.36076 0,1.36076"
       id="shield_to_face"
       sodipodi:nodetypes="ccccccccccccc"
       inkscape:original-d="m 0,-21.12312 c 0,0 21.907985,0.14616 32.862,0.21924 5.886828,1.293138 12.950987,2.844897 17.66046,3.87941 2.520137,1.216935 6.300309,3.042321 9.45048,4.56349 0.342355,2.9059602 0.684706,5.8118907 1.02706,8.71785 0.666669,4.1204999 1.333332,8.2409679 2,12.36146 0.32916,5.06432 0.658318,10.128618 0.987478,15.19294 -8.582161,1.526179 -17.164299,3.052354 -25.746441,4.57853 -4.586101,-0.349326 -9.172194,-0.698652 -13.758311,-1.04798 -3.404486,-2.392587 -6.819374,-4.792483 -10.21343,-7.17774 -2.908059,-1.274733 -5.8159715,-2.549401 -8.7509629,-3.83594 0.1327868,-5.01997 0.2651659,-10.0245256 0.3959169,-14.96753 -1.9531722,4.95e-5 -3.92742,9.96e-5 -5.91425,1.5e-4"
       inkscape:path-effect="#path-effect2" /><g
       id="g8"
       transform="translate(300)"><image
         width="250"
         height="250"
         preserveAspectRatio="none"
         xlink:href="private/Eli_face_scan_1_depthmap_3px_per_mm_color_range_100to-150x.png"
         id="image2"
         x="-125"
         y="-125" /><image
         width="250.79143"
         height="250.5291"
         preserveAspectRatio="none"
         xlink:href="private/Eli_face_scan_render_hack_2.png"
         id="image3"
         x="-125"
         y="-125"
         style="opacity:1" /><path
         style="fill:none;fill-opacity:1;stroke:#ff0000;stroke-width:0.2;stroke-linecap:round;stroke-linejoin:round;stroke-dasharray:none;stroke-opacity:1"
         d="m 0,-29.987439 c 0,0 15.849816,0.105743 27.299323,0.809061 11.449507,0.703318 15.866466,1.673576 21.208482,3.519957 5.342015,1.846381 10.332992,4.961464 12.940722,8.652427 2.60773,3.690964 3.663972,8.4768852 4.304602,12.9488746 0.640631,4.47198936 0.865635,8.6299552 1.142717,17.4062834 0.277083,8.776328 0.60624,22.170918 -4.554649,29.537586 -5.16089,7.366669 -15.811805,8.705341 -23.33735,8.677634 C 31.478302,51.536677 27.074757,50.141525 24.443102,46.126332 21.811447,42.111139 20.944982,35.473837 20.508866,31.106968 20.072751,26.7401 20.068993,24.664956 18.143099,22.691922 16.217206,20.718889 14.933787,20.0957 12.758231,18.926502 10.582674,17.757304 8.9192492,16.73938 8.9192492,16.73938"
         id="path4"
         sodipodi:nodetypes="ccccccccccccc"
         inkscape:original-d="m 0,-29.987439 c 0,0 21.907981,0.14616 32.862,0.21924 5.88683,1.293139 12.950981,2.844896 17.66046,3.87941 3.32736,2.076749 8.318337,5.191832 12.47754,7.787769 1.056257,4.78599 2.112499,9.5719113 3.168754,14.35789 0.225005,4.158 0.450009,8.3159658 0.675015,12.47396 0.32916,13.394662 0.658317,26.789252 0.987477,40.183913 -10.650939,1.338675 -21.301854,2.677348 -31.952761,4.01602 -4.400183,-1.394086 -8.803728,-2.789238 -13.200565,-4.182264 -0.866473,-6.63736 -1.732938,-13.274662 -2.6014,-19.927259 -0.0038,-2.08114 -0.0075,-4.156284 -0.01129,-6.23387 -2.56526,-1.245611 -5.131443,-2.49167 -7.697154,-3.7375 -1.149606,-0.703495 -3.4488268,-2.11049 -3.4488268,-2.11049"
         inkscape:path-effect="#path-effect17" /><path
         style="fill:none;fill-opacity:1;stroke:#ff00e6;stroke-width:0.2;stroke-linecap:round;stroke-linejoin:round;stroke-dasharray:none;stroke-opacity:1"
         d="m 0,13.178 c 0,0 2.6297653,0 4.4030007,1.092415 1.7732354,1.092415 2.3163401,2.731712 4.0792032,4.13898 1.7628631,1.407267 5.6945191,1.533554 7.3378501,1.286754 1.643331,-0.246799 1.653535,-0.845623 1.035946,-1.65726 -0.617589,-0.811638 -1.862952,-1.836061 -3.167737,-2.00007 -1.304785,-0.164009 -2.668955,0.5324 -3.7002446,0.175386 -1.0312896,-0.357014 -1.7296677,-1.767447 -2.239582,-3.700211 -0.5099142,-1.932764 -0.8293805,-4.372719 -1.8466362,-6.0214954 -1.0172556,-1.6487765 -1.586262,-1.9238946 -2.9400926,-2.1956966 -1.3538307,-0.271802 -2.9617036,-0.271802 -2.9617036,-0.271802"
         id="path5"
         inkscape:path-effect="#path-effect18"
         inkscape:original-d="m 0,13.178 c 0,0 3.6349239,0 5.4523943,0 0.7238418,2.18483 1.5924435,4.806601 2.1715187,6.55447 2.621154,0.08419 6.55281,0.210479 9.829269,0.31572 0.0102,-0.59884 0.02041,-1.197664 0.03061,-1.7965 -1.245381,-1.024439 -2.490744,-2.048862 -3.736124,-3.0733 -1.36419,0.69642 -2.72836,1.392829 -4.0925531,2.08925 -0.6983862,-1.410449 -1.3967641,-2.820882 -2.0951448,-4.23132 -0.3214479,-2.45509 -0.6409142,-4.895045 -0.9643451,-7.36528 -1.1417931,-0.552064 -2.2800868,-1.102436 -3.4043829,-1.64604 -1.0539051,0 -2.1191724,0 -3.1912381,0"
         sodipodi:nodetypes="ccccccccccc" /><path
         style="fill:none;stroke:#0000ff;stroke-width:0.3;stroke-linecap:round;stroke-linejoin:round;stroke-dasharray:none;stroke-opacity:1"
         d="m 0,-125 v 250"
         id="path6"
         sodipodi:nodetypes="cc" /><path
         style="fill:none;stroke:#0000ff;stroke-width:0.3;stroke-linecap:round;stroke-linejoin:round;stroke-dasharray:none;stroke-opacity:1"
         d="m -125,0 h 250"
         id="path7"
         sodipodi:nodetypes="cc" /><path
         style="fill:none;fill-opacity:1;stroke:#ff0000;stroke-width:0.2;stroke-linecap:round;stroke-linejoin:round;stroke-dasharray:2, 0.2, 0;stroke-dashoffset:0;stroke-opacity:1"
         d="m 0,-21.12312 c 0,0 15.849822,0.105743 27.299325,0.809061 11.449503,0.703317 15.866472,1.673577 20.804872,3.090051 4.9384,1.416473 8.718572,3.241859 10.464835,5.455424 1.746263,2.2135643 2.088614,5.1194947 2.593125,8.6327243 0.504512,3.51322963 1.171175,7.6336975 1.669089,12.2261036 0.497914,4.5924061 0.827072,9.6567041 -3.299428,12.9519551 -4.126501,3.29525 -12.708639,4.821425 -19.29276,5.40985 -6.584122,0.588425 -11.170215,0.239099 -15.165517,-1.131859 -3.995301,-1.370957 -7.410189,-3.770853 -10.561246,-5.600848 -3.151058,-1.829995 -6.0589703,-3.104663 -7.4269696,-7.50937 -1.3679994,-4.4047057 -1.3018264,-6.9063576 -2.7036546,-9.3778226 -1.4018283,-2.471465 -4.3816708,-2.4713894 -4.3816708,-2.4713894"
         id="path8"
         sodipodi:nodetypes="ccccccccccccc"
         inkscape:original-d="m 0,-21.12312 c 0,0 21.907985,0.14616 32.862,0.21924 5.886828,1.293138 12.950987,2.844897 17.66046,3.87941 2.520137,1.216935 6.300309,3.042321 9.45048,4.56349 0.342355,2.9059602 0.684706,5.8118907 1.02706,8.71785 0.666669,4.1204999 1.333332,8.2409679 2,12.36146 0.32916,5.06432 0.658318,10.128618 0.987478,15.19294 -8.582161,1.526179 -17.164299,3.052354 -25.746441,4.57853 -4.586101,-0.349326 -9.172194,-0.698652 -13.758311,-1.04798 -3.404486,-2.392587 -6.819374,-4.792483 -10.21343,-7.17774 -2.908059,-1.274733 -5.8159715,-2.549401 -8.7509629,-3.83594 0.1327868,-5.01997 0.2651659,-10.0245256 0.3959169,-14.96753 -1.9531722,4.95e-5 -3.92742,9.96e-5 -5.91425,1.5e-4"
         inkscape:path-effect="#path-effect2" /></g><path
       style="fill:none;fill-opacity:1;stroke:#ff0000;stroke-width:0.2;stroke-linecap:round;stroke-linejoin:round;stroke-dasharray:none;stroke-opacity:1"
       d="m -5.92e-4,225.9394 c 0,0 1.8772724,0 3.3746983,0.11594 1.4974259,0.11593 2.2326632,0.2899 3.0072089,0.61147 0.7745457,0.32157 1.2613166,0.85161 1.4959447,1.2076 0.234628,0.35598 0.2982344,0.62624 0.4839251,0.74884 0.1856908,0.12261 0.4934627,0.0976 0.7112551,-0.54721 0.2177925,-0.64477 0.3456029,-1.90925 1.5855059,-3.56481 1.239902,-1.65556 3.591892,-3.70218 7.588212,-5.35407 3.996321,-1.65188 9.641286,-2.90998 15.357358,-3.39364 5.716073,-0.48367 11.511802,-0.19482 15.761392,0.28642 4.249591,0.48123 6.931936,1.15224 8.983826,1.77052 2.05189,0.61827 3.610528,1.23891 4.19142,2.06899 0.580892,0.83009 0.449391,2.12498 0.366294,3.09001 -0.0831,0.96502 -0.105337,1.43939 -0.06188,1.73702 0.04345,0.29762 0.145633,0.3968 0.676397,0.44616 0.530764,0.0493 1.370554,0.0273 1.762503,0.0982 0.391949,0.0709 0.473492,0.27853 0.503464,0.6737 0.02997,0.39517 0.01809,0.91109 0.0039,1.53707 -0.0142,0.62597 -0.02632,1.16919 -0.09367,1.44387 -0.06735,0.27469 -0.265311,0.43983 -0.654226,0.45537 -0.388916,0.0155 -1.407905,-0.0897 -1.859691,-0.0689 -0.451787,0.0207 -0.592397,0.14937 -0.760199,1.16256 -0.167802,1.01319 -0.333919,2.6822 -0.5865,4.21401 -0.25258,1.53181 -0.557638,2.69363 -0.814508,3.37312 -0.25687,0.67948 -0.447189,0.81564 -0.734998,0.86771 -0.287809,0.0521 -0.682479,0.0212 -0.932416,0.0593 -0.249937,0.0381 -0.356266,0.14828 -0.516518,0.85527 -0.160252,0.70699 -0.387108,2.04598 -1.281428,4.51897 -0.89432,2.47299 -2.323326,5.70097 -4.996953,8.07746 -2.673626,2.37648 -6.939718,4.18638 -11.920476,4.9654 -4.980758,0.77901 -9.986674,0.46207 -13.767318,-0.6053 -3.780643,-1.06738 -6.097781,-2.74965 -8.005456,-4.30573 -1.907675,-1.55607 -2.775504,-2.49536 -3.207594,-3.02451 -0.432089,-0.52915 -0.565738,-0.82008 -0.707754,-1.02465 -0.142015,-0.20457 -0.292956,-0.31467 -0.482551,-0.27956 -0.189596,0.0351 -0.654013,0.28115 -0.875528,0.27598 -0.221515,-0.005 -0.359883,-0.2064 -0.730649,-0.35997 -0.370766,-0.15357 -0.891633,-0.23468 -1.382731,-0.40371 -0.491097,-0.16903 -0.910153,-0.40699 -1.6576177,-1.14653 -0.7474643,-0.73954 -1.6229968,-1.80288 -2.3074731,-3.31416 -0.6844763,-1.51129 -1.4286285,-4.05097 -1.6601024,-6.06553 -0.2314739,-2.01456 0.096,-3.41733 0.2367136,-4.02498 0.1407139,-0.60764 0.2349498,-1.02841 0.2574985,-1.51555 0.022549,-0.48713 0.00625,-1.37404 -0.1040088,-2.02832 -0.1102555,-0.65427 -0.3191418,-1.04442 -0.9177516,-1.27453 -0.5986097,-0.23011 -1.2738677,-0.35498 -2.5513098,-0.4374 -1.2774421,-0.0824 -2.7761957,-0.0824 -2.7761957,-0.0824"
       id="gframe_exclusion"
       sodipodi:nodetypes="ccccccccccccccccccccccccccccccccccccccccccccccc"
       inkscape:original-d="m -5.92e-4,225.9394 c 0,0 2.594809,0 3.8922166,0 0.9799076,0.23187 2.15579,0.51011 2.9397182,0.69561 0.3245181,0.35337 0.811289,0.88341 1.2169377,1.32512 0.063607,0.27026 0.1272138,0.54052 0.190821,0.81078 0.3077743,-0.025 0.6155462,-0.0501 0.92332,-0.0751 0.1278111,-1.26449 0.2556215,-2.52897 0.3834326,-3.79346 2.3519939,-2.04663 4.7039839,-4.09325 7.0559709,-6.13988 5.640654,-1.25714 11.285619,-2.51524 16.921984,-3.77142 5.79578,0.28885 11.591509,0.5777 17.400593,0.86722 2.690097,0.67295 5.372442,1.34396 8.057945,2.01576 1.418277,0.56475 2.976915,1.18539 4.255589,1.69454 -0.11689,1.15102 -0.248391,2.44591 -0.389024,3.83072 -0.02556,0.54524 -0.0478,1.01961 -0.07071,1.50827 0.109817,0.10659 0.211996,0.20577 0.338953,0.32899 0.934571,-0.0245 1.774361,-0.0465 2.495149,-0.0654 0.06311,0.1607 0.144653,0.36834 0.218469,0.5563 -0.01387,0.60238 -0.02575,1.1183 -0.04106,1.78284 -0.0131,0.58741 -0.02522,1.13063 -0.03515,1.57592 -0.12476,0.10408 -0.322725,0.26922 -0.441528,0.36833 -0.659028,-0.068 -1.678017,-0.17322 -2.449249,-0.25283 -0.132341,0.12107 -0.272951,0.24971 -0.420283,0.38449 -0.188272,1.8916 -0.354389,3.56061 -0.537072,5.39605 -0.322478,1.22818 -0.627536,2.39 -0.948059,3.61073 -0.193217,0.13824 -0.383536,0.2744 -0.571507,0.40888 -0.387647,-0.0303 -0.782317,-0.0612 -1.178601,-0.0922 -0.10359,0.10729 -0.209919,0.21743 -0.30809,0.31911 -0.222333,1.3123 -0.449189,2.65129 -0.69775,4.11839 -1.540079,3.47888 -2.969085,6.70686 -4.323236,9.76575 -3.993102,1.69408 -8.259194,3.50398 -12.748298,5.40849 -5.472412,-0.34648 -10.478328,-0.66342 -15.540726,-0.98394 -2.498889,-1.81423 -4.816027,-3.4965 -7.671177,-5.56938 -0.9602,-1.03927 -1.828029,-1.97856 -2.579852,-2.79229 -0.112356,-0.24457 -0.246005,-0.5355 -0.385547,-0.83925 -0.144489,-0.10539 -0.29543,-0.21549 -0.399216,-0.29119 -0.275405,0.14591 -0.739822,0.39196 -1.05935,0.56124 -0.123502,-0.17962 -0.26187,-0.38085 -0.409454,-0.59549 -0.593948,-0.0925 -1.114815,-0.17361 -1.647832,-0.25661 -0.449178,-0.25506 -0.868234,-0.49302 -1.388643,-0.78853 -0.97452,-1.18357 -1.8500525,-2.24691 -2.6003805,-3.1582 -0.6186246,-2.11128 -1.3627768,-4.65096 -2.1439413,-7.31697 0.3182167,-1.36311 0.6456902,-2.76588 0.87336,-3.74113 0.053758,-0.24004 0.147994,-0.66081 0.2062205,-0.9208 -0.013129,-0.71428 -0.029431,-1.60119 -0.046499,-2.52977 -0.2034431,-0.37997 -0.4123294,-0.77012 -0.5542482,-1.03519 -0.671359,-0.12415 -1.7305587,-0.32002 -2.6219187,-0.48486 -1.075063,0 -3.1622778,0 -3.1622778,0"
       inkscape:path-effect="#path-effect17-6" /><use
       x="0"
       y="0"
       xlink:href="#gframe_exclusion"
       id="use1"
       transform="matrix(-1,0,0,1,-0.01095094,0)" /><path
       style="fill:none;fill-opacity:1;stroke:#ff0000;stroke-width:0.2;stroke-linecap:round;stroke-linejoin:round;stroke-dasharray:none;stroke-opacity:1"
       d="m 10.397896,224.85295 c 1.323288,-1.79338 3.763608,-3.94195 7.804099,-5.64481 4.040491,-1.70286 9.681152,-2.96 15.354706,-3.51904 5.673554,-0.55903 11.379999,-0.41996 16.247977,0.0898 4.867978,0.50979 8.897488,1.3903 11.606618,3.08441 2.709131,1.69411 4.097882,4.20181 4.34986,7.23998 0.251978,3.03817 -0.632818,6.60681 -1.585735,9.47257 -0.952917,2.86575 -1.973955,5.02863 -3.701347,7.8343 -1.727393,2.80567 -4.161139,6.25415 -7.502729,8.8798 -3.34159,2.62565 -7.591022,4.42848 -12.30586,5.16591 -4.714837,0.73742 -9.895072,0.40944 -13.824529,-0.66952 -3.929456,-1.07897 -6.608113,-2.90891 -8.65453,-4.77395 -2.046417,-1.86505 -3.460589,-3.76519 -4.863577,-6.09477 -1.402989,-2.32958 -2.794794,-5.0886 -3.5697219,-7.89266 -0.7749276,-2.80407 -0.9329778,-5.65317 -0.9088757,-7.79682 0.024102,-2.14365 0.2303567,-3.58184 1.5536446,-5.37523 z"
       id="gframe_to_window"
       sodipodi:nodetypes="cccccccccccccccc"
       inkscape:original-d="m 9.2808627,225.20814 c 2.4403213,-2.14857 4.8806413,-4.29714 7.3209623,-6.44572 5.640661,-1.25714 11.281322,-2.51428 16.921984,-3.77142 5.706446,0.13907 11.412891,0.27814 17.119337,0.41721 4.02951,0.88051 8.05902,1.76102 12.088529,2.64153 1.388752,2.50771 2.777503,5.01541 4.166255,7.52312 -0.884796,3.56863 -1.769592,7.13727 -2.654388,10.70591 -1.021038,2.16287 -2.042076,4.32575 -3.063114,6.48862 -2.433747,3.44847 -4.867493,6.89695 -7.30124,10.34542 -4.249433,1.80283 -8.498865,3.60566 -12.748298,5.40849 -5.180242,-0.32798 -10.360477,-0.65596 -15.540726,-0.98394 -2.678664,-1.82995 -5.357321,-3.65989 -8.035982,-5.48984 -1.414173,-1.90014 -2.828345,-3.80028 -4.242517,-5.70042 -1.391805,-2.75902 -2.78361,-5.51804 -4.1754153,-8.27706 -0.1580502,-2.84911 -0.3161004,-5.69821 -0.4741507,-8.54731 0.2062546,-1.4382 0.4125091,-2.87639 0.6187637,-4.31459 z"
       inkscape:path-effect="#path-effect3" /><path
       style="fill:none;fill-opacity:1;stroke:#ff0000;stroke-width:0.2;stroke-linecap:round;stroke-linejoin:round;stroke-dasharray:none;stroke-opacity:1"
       d="m 0,-10.187002 c 0,0 1.7494262,0.10962 2.8487394,0.9047502 1.0993131,0.7951303 1.3239131,1.5354506 2.559127,3.2126266 1.2352139,1.677176 3.0318417,2.8105667 4.6037356,2.8698118 1.571893,0.059245 2.919051,-0.9556547 3.917421,-1.2625042 0.998369,-0.3068495 1.647947,0.094352 1.478158,0.8617228 -0.169789,0.7673707 -1.158947,1.9009106 -2.49893,2.95461406 -1.339983,1.05370351 -3.0307928,2.02757194 -3.9771682,3.21965074 -0.9463754,1.1920788 -1.1483166,2.6023681 -2.0102034,2.1014607 -0.8618867,-0.5009074 -1.369164,-1.3049419 -3.0107316,-2.1089766 -1.6415675,-0.8040346 -3.9101478,-0.8040346 -3.9101478,-0.8040346"
       id="nose_support"
       sodipodi:nodetypes="ccccccccccc"
       inkscape:original-d="m 0,-10.187002 c 1.1662842,0.07308 2.3325683,0.14616 3.4988525,0.2192397 0.4492,1.4806408 0.8984,2.9612815 1.3476,4.4419223 1.7966278,1.1333908 3.5932556,2.2667815 5.3898835,3.4001723 1.347159,-1.0149006 2.694317,-2.0298006 4.041477,-3.0447016 0.649579,0.4012022 1.299157,0.802404 1.948736,1.203606 -0.989157,1.1335393 -1.978315,2.267079 -2.967472,3.40061811 -1.690809,0.97386799 -3.3816188,1.94773639 -5.0724283,2.92160459 -0.2019413,1.4102894 -0.4038825,2.8205787 -0.6058238,4.230868 -1.0145548,-1.6080694 -2.0291095,-3.2161386 -3.0436643,-4.8242079 -1.5123869,0 -3.0247737,0 -4.5371606,0"
       inkscape:path-effect="#path-effect4" /></g></svg>
